<svg height="512pt" viewBox="-6 0 512 512.00017" width="512pt" xmlns="http://www.w3.org/2000/svg"><path d="m500.757812 261.621094c0 138.28125-112.097656 250.378906-250.378906 250.378906s-250.378906-112.097656-250.378906-250.378906 112.097656-250.378906 250.378906-250.378906 250.378906 112.097656 250.378906 250.378906zm0 0" fill="#4f66cf"/><path d="m387.789062 23.160156c-2.523437 4.242188-6.769531 6.8125-11.316406 7.371094l-86.964844 146.394531h-21.789062l92.648438-155.960937c-1.683594-4.261719-1.457032-9.21875 1.0625-13.460938 4.324218-7.28125 13.730468-9.675781 21.007812-5.351562 7.277344 4.324218 9.675781 13.730468 5.351562 21.007812zm0 0" fill="#0ed1b2"/><path d="m262.421875 171.71875c-.109375.007812-.226563.003906-.339844.011719-11.960937 4.34375-38.679687 1.5625-68.03125-7.945313-31.714843-10.269531-56.351562-25.09375-61.191406-35.925781 9.980469-5.773437 37.3125-3.640625 67.941406 5.90625-23.445312-22.78125-38.679687-46.359375-38.304687-58.042969 11.644531-.84375 35.757812 13.390625 59.429687 35.847656-.175781-.515624-.355469-1.027343-.53125-1.546874-10.59375-31.605469-13.316406-60.234376-7.484375-70.566407 10.882813 4.730469 25.960938 29.214844 36.554688 60.820313 8.429687 25.148437 11.871094 48.398437 9.988281 62.058594.46875 1.242187.847656 2.429687 1.152344 3.5625 1.371093 1.609374 2.417969 3.167968 3.078125 4.648437-.675782.390625-1.433594.746094-2.265625 1.0625.003906.035156.007812.074219.003906.109375zm0 0" fill="#0ed1b2"/><path d="m319.035156 88.171875c17.960938-17.957031 47.078125-17.957031 65.035156 0 17.960938 17.960937 17.960938 47.078125 0 65.039063-17.957031 17.960937-47.074218 17.960937-65.035156 0-17.960937-17.960938-17.960937-47.078126 0-65.039063zm0 0" fill="#fd4fb6"/><path d="m384.070312 88.171875c4.144532 4.144531 7.316407 8.882813 9.550782 13.9375-2.234375 5.054687-5.40625 9.796875-9.550782 13.9375-17.957031 17.960937-47.074218 17.960937-65.035156 0-4.144531-4.140625-7.316406-8.882813-9.550781-13.9375 2.234375-5.054687 5.40625-9.792969 9.550781-13.9375 17.960938-17.957031 47.078125-17.957031 65.035156 0zm0 0" fill="#fd73c4"/><path d="m425.03125 285.226562c0 72.066407-43.648438 133.933594-105.949219 160.613282-26.054687 11.15625-43.152343 36.527344-43.152343 64.871094-8.402344.851562-16.925782 1.289062-25.550782 1.289062s-17.074218 0-25.546875-1.289062c0-28.34375-17.097656-53.710938-43.152343-64.871094-62.304688-26.679688-105.953126-88.546875-105.953126-160.613282 0-29.980468 7.5625-64.621093 20.875-98.132812-8.238281-.257812-14.84375-7-14.84375-15.304688 0-8.464843 6.863282-15.328124 15.328126-15.328124h306.585937c8.464844 0 15.332031 6.863281 15.332031 15.328124 0 8.304688-6.605468 15.046876-14.847656 15.304688 13.3125 33.511719 20.875 68.152344 20.875 98.132812zm0 0" fill="#84deea"/><path d="m319.082031 445.839844c-26.054687 11.15625-43.152343 36.527344-43.152343 64.871094-6.964844 1.003906-14.230469 1.121093-21.460938 1.238281v-26.519531c0-25.398438 20.585938-45.988282 45.988281-45.988282 7.683594 0 14.921875 1.894532 21.289063 5.226563-.886719.398437-1.773438.789062-2.664063 1.171875zm85.074219-258.746094c8.539062-.265625 15.320312-7.496094 14.820312-16.207031-.46875-8.175781-7.53125-14.425781-15.722656-14.425781h-255.65625c-8.40625 0-15.578125 6.582031-15.761718 14.988281-.175782 8.066406 5.882812 14.753906 13.691406 15.582031-.007813.027344-.011719.058594-.019532.089844h224.089844c5.441406 0 10.195313 4.105468 10.546875 9.539062.386719 5.949219-4.328125 10.898438-10.195312 10.898438h-209.175781c-10.9375 0-20 8.609375-20.425782 19.535156-.089844 2.371094-.136718 4.71875-.136718 7.035156 0 96.457032 78.195312 174.652344 174.652343 174.652344 26.117188 0 50.890625-5.742188 73.144531-16.019531 23.195313-29.644531 37.023438-66.972657 37.023438-107.535157 0-29.980468-7.5625-64.621093-20.875-98.132812zm0 0" fill="#ade8f0"/><path d="m332.0625 71.023438v91.792968c0 3.371094-2.730469 6.101563-6.097656 6.101563h-95.058594c8.242188-51.167969 49.457031-91.300781 101.15625-97.894531zm0 0" fill="#fdf385"/><path d="m332.0625 149.863281v12.953125c0 3.367188-2.730469 6.097656-6.097656 6.097656h-95.058594c2.785156-17.285156 9.34375-33.300781 18.789062-47.203124 15.277344 18.339843 38.503907 30.046874 64.527344 30.046874 6.125.003907 12.089844-.664062 17.839844-1.894531zm0 0" fill="#fdf061"/><path d="m332.0625 162.816406c0 3.371094-2.730469 6.101563-6.097656 6.101563h-16.804688c-15.574218-8.40625-26.355468-18.390625-24.183594-22.484375 1.964844-3.707032 13.875-1.335938 27.757813 5.210937-6.546875-13.878906-8.917969-25.792969-5.210937-27.757812 4.164062-2.207031 14.425781 8.980469 22.917968 24.996093.566406 1.066407 1.101563 2.121094 1.621094 3.171876zm0 0" fill="#fdcb6b"/><path d="m332.0625 51.28125v25.316406c-47.785156 8.136719-85.746094 45.074219-95.414062 92.320313h-26.117188c-3.925781 0-7.160156-3.160157-7.160156-7.085938 0-.023437 0-.046875 0-.070312 0-24.480469 7.496094-47.199219 20.285156-66.03125 1.148438-1.691407 3.039062-2.71875 5.082031-2.71875h27.417969v-26.101563c0-2.074218 1.042969-4.035156 2.804688-5.128906 18.03125-11.234375 39.3125-17.734375 62.125-17.734375 1.363281 0 2.722656.023437 4.074218.070313 3.851563.136718 6.902344 3.308593 6.902344 7.164062zm0 0" fill="#fdbf43"/><path d="m254.367188 126.84375c-8.457032 12.523438-14.585938 26.75-17.71875 42.074219h-26.117188c-3.925781 0-7.160156-3.160157-7.160156-7.085938 0-.023437 0-.046875 0-.070312 0-24.480469 7.496094-47.199219 20.285156-66.03125 1.148438-1.691407 3.042969-2.71875 5.082031-2.71875h5.535157c3.84375 12.882812 10.828124 24.441406 20.09375 33.832031zm0 0" fill="#fcb30b"/><path d="m366.425781 224.832031c4.625 0 8.65625 3.113281 9.875 7.578125 5.105469 18.6875 7.851563 36.785156 7.851563 52.816406 0 73.765626-60.011719 133.773438-133.773438 133.773438-73.761718 0-133.773437-60.011719-133.773437-133.773438 0-16.03125 2.75-34.128906 7.851562-52.816406 1.21875-4.464844 5.25-7.578125 9.875-7.578125zm0 0" fill="#fdf7bd"/><path d="m140.210938 234.128906c0-3.050781.085937-6.15625.238281-9.296875h225.976562c4.625 0 8.65625 3.113281 9.875 7.578125 5.105469 18.6875 7.851563 36.789063 7.851563 52.816406 0 55.21875-33.628906 102.726563-81.476563 123.125-90.769531-6.257812-162.464843-81.863281-162.464843-174.222656zm0 0" fill="#fff5f5"/><path d="m203.371094 224.832031c0 5.644531-4.578125 10.21875-10.222656 10.21875-5.644532 0-10.21875-4.574219-10.21875-10.21875s4.574218-10.222656 10.21875-10.222656c5.644531 0 10.222656 4.578125 10.222656 10.222656zm71.535156 30.65625c-11.289062 0-20.4375 9.152344-20.4375 20.441407 0 11.289062 9.148438 20.4375 20.4375 20.4375s20.4375-9.148438 20.4375-20.4375c0-11.289063-9.148438-20.441407-20.4375-20.441407zm56.207031 61.316407c-8.464843 0-15.328125 6.867187-15.328125 15.332031 0 8.464843 6.863282 15.328125 15.328125 15.328125 8.464844 0 15.328125-6.863282 15.328125-15.328125 0-8.464844-6.863281-15.332031-15.328125-15.332031zm-168.621093-25.546876c-8.46875 0-15.332032 6.863282-15.332032 15.328126 0 8.46875 6.863282 15.332031 15.332032 15.332031 8.464843 0 15.328124-6.863281 15.328124-15.332031 0-8.464844-6.863281-15.328126-15.328124-15.328126zm66.425781 66.425782c-8.464844 0-15.328125 6.863281-15.328125 15.332031 0 8.464844 6.863281 15.328125 15.328125 15.328125 8.464843 0 15.328125-6.863281 15.328125-15.328125 0-8.46875-6.863282-15.332031-15.328125-15.332031zm0 0" fill="#fdf385"/></svg>